<svg version="1.1" xmlns="http://www.w3.org/2000/svg" xmlns:xlink="http://www.w3.org/1999/xlink" width="168.1067" height="337.29331" viewBox="0,0,168.1067,337.29331"><defs><linearGradient x1="280.12064" y1="149.95331" x2="280.12064" y2="209.11701" gradientUnits="userSpaceOnUse" id="color-1"><stop offset="0" stop-color="#fde6d9"/><stop offset="1" stop-color="#f7d9c8"/></linearGradient><linearGradient x1="282.86708" y1="-51.6698" x2="282.86708" y2="366.73852" gradientUnits="userSpaceOnUse" id="color-2"><stop offset="0" stop-color="#000000"/><stop offset="1" stop-color="#000000" stop-opacity="0"/></linearGradient><linearGradient x1="285.16616" y1="203.55465" x2="285.16616" y2="218.17102" gradientUnits="userSpaceOnUse" id="color-3"><stop offset="0" stop-color="#f7dac9"/><stop offset="1" stop-color="#fde6d9"/></linearGradient><linearGradient x1="203.93333" y1="132.23107" x2="149.366" y2="109.36734" gradientUnits="userSpaceOnUse" id="color-4"><stop offset="0" stop-color="#fde6d9"/><stop offset="1" stop-color="#f7d9c8"/></linearGradient><linearGradient x1="388.83118" y1="212.68109" x2="2.92859" y2="50.98782" gradientUnits="userSpaceOnUse" id="color-5"><stop offset="0" stop-color="#000000"/><stop offset="1" stop-color="#000000" stop-opacity="0"/></linearGradient><linearGradient x1="242.85498" y1="94.10675" x2="242.85498" y2="121.43429" gradientUnits="userSpaceOnUse" id="color-6"><stop offset="0" stop-color="#d2a991"/><stop offset="1" stop-color="#fde6d9"/></linearGradient><linearGradient x1="243.74481" y1="84.24732" x2="245.73633" y2="84.17912" gradientUnits="userSpaceOnUse" id="color-7"><stop offset="0" stop-color="#f4d7c8"/><stop offset="1" stop-color="#f4d7c8" stop-opacity="0"/></linearGradient><linearGradient x1="240.4668" y1="86.9238" x2="240.49001" y2="87.46349" gradientUnits="userSpaceOnUse" id="color-8"><stop offset="0" stop-color="#ecc6b1"/><stop offset="1" stop-color="#ecc6b1" stop-opacity="0"/></linearGradient><linearGradient x1="243.06897" y1="86.88419" x2="243.09218" y2="87.42388" gradientUnits="userSpaceOnUse" id="color-9"><stop offset="0" stop-color="#ecc6b1"/><stop offset="1" stop-color="#ecc6b1" stop-opacity="0"/></linearGradient><linearGradient x1="243.74481" y1="83.31521" x2="245.73633" y2="83.24701" gradientUnits="userSpaceOnUse" id="color-10"><stop offset="0" stop-color="#f4d7c8"/><stop offset="1" stop-color="#f4d7c8" stop-opacity="0"/></linearGradient><linearGradient x1="240.4668" y1="85.99169" x2="240.49001" y2="86.53138" gradientUnits="userSpaceOnUse" id="color-11"><stop offset="0" stop-color="#ecc6b1"/><stop offset="1" stop-color="#ecc6b1" stop-opacity="0"/></linearGradient><linearGradient x1="243.06897" y1="85.95208" x2="243.09218" y2="86.49177" gradientUnits="userSpaceOnUse" id="color-12"><stop offset="0" stop-color="#ecc6b1"/><stop offset="1" stop-color="#ecc6b1" stop-opacity="0"/></linearGradient><linearGradient x1="243.5446" y1="65.92059" x2="244.32104" y2="83.97096" gradientUnits="userSpaceOnUse" id="color-13"><stop offset="0" stop-color="#f9ddce" stop-opacity="0"/><stop offset="1" stop-color="#f9ddce"/></linearGradient><linearGradient x1="157.59032" y1="114.73366" x2="141.66793" y2="111.41836" gradientUnits="userSpaceOnUse" id="color-14"><stop offset="0" stop-color="#ffe8da"/><stop offset="1" stop-color="#fde2d1"/></linearGradient></defs><g transform="translate(-125.42856,-10.85459)"><g data-paper-data="{&quot;isPaintingLayer&quot;:true}" fill-rule="nonzero" stroke-miterlimit="10" stroke-dasharray="" stroke-dashoffset="0" style="mix-blend-mode: normal"><g data-paper-data="{&quot;index&quot;:null}" stroke="none" stroke-width="0" stroke-linecap="butt" stroke-linejoin="miter"><g data-paper-data="{&quot;origPos&quot;:null}"><path d="M281.28524,206.53792c-1.84654,0 -2.68518,-1.82658 -2.68518,-1.82658l-0.33333,-7.09543h10.51277v7.26209c0,0 -6.27223,1.65991 -7.49425,1.65991z" data-paper-data="{&quot;origPos&quot;:null}" fill="#000000"/><path d="M276.74755,183.35552c-1.24892,-9.10436 -5.01758,-15.04194 -6.27528,-24.8135c-1.2577,-9.77156 17.84623,-12.10697 18.4756,-2.27025c1.426,15.24641 -0.87831,17.06685 -0.51834,24.68316c0.40146,8.49401 1.14376,18.17834 -1.65124,25.31902c-1.4559,3.71955 -3.94521,3.7999 -5.61638,0.17919c-3.12219,-6.76445 -3.16544,-13.99328 -4.41436,-23.09763z" data-paper-data="{&quot;origPos&quot;:null}" fill="url(#color-1)"/><g data-paper-data="{&quot;origPos&quot;:null}"><path d="M283.03238,202.6393c-2.47569,0.29371 -4.24363,2.90141 -4.24363,2.90141l-0.53751,-8.07554l10.56504,0.16667l-0.57708,5.7144z" data-paper-data="{&quot;origPos&quot;:null}" fill="url(#color-2)"/><path d="M288.91472,201.18096c0,0 -3.76306,-1.27379 -6.72709,-0.89386c-2.79257,0.35795 -3.16159,4.77785 -3.16159,4.77785c0,0 -9.34958,-41.90172 -8.91188,-46.71457c0.43771,-4.81285 3.35424,-8.23265 9.91299,-8.75018c6.90618,-0.74945 8.0089,1.27601 9.15367,8.31184c1.87755,11.53958 -0.2661,43.26891 -0.2661,43.26891z" data-paper-data="{&quot;origPos&quot;:null,&quot;origRot&quot;:0}" fill="#1e4994"/></g></g><g data-paper-data="{&quot;origPos&quot;:null,&quot;origRot&quot;:0}"><path d="M264.86136,122.2009c1.0353,-4.00206 0.81469,-12.38631 6.87135,-10.49811c5.74408,1.79076 13.09356,11.26839 15.79197,26.56326c0.78828,4.46802 0.84159,15.07059 1.61146,19.54208c1.39509,8.10288 -13.61297,13.71165 -16.70155,6.13057c-2.54033,-6.23535 -2.65585,-5.50918 -5.91304,-24.50184c-1.36793,-7.9764 -3.68436,-9.4114 -1.66021,-17.23597z" data-paper-data="{&quot;origPos&quot;:null,&quot;origRot&quot;:0}" fill="#2152a6"/><path d="M273.48967,112.02584c5.38208,3.0264 11.52566,12.05683 13.94145,25.74974c0.78828,4.46802 0.84159,15.07059 1.61146,19.54208c0.7981,4.63542 -3.772,8.45461 -8.40773,9.45512c-2.62682,-13.42911 -5.2215,-26.86451 -7.59716,-40.34339c-0.68755,-3.90097 0.07731,-9.52177 0.45199,-14.40355z" data-paper-data="{&quot;origPos&quot;:null,&quot;origRot&quot;:0}" fill="#000000"/></g><g data-paper-data="{&quot;origPos&quot;:null}"><g data-paper-data="{&quot;origPos&quot;:null}" fill="#ead0c0"><path d="M290.46368,214.29737c1.35577,1.56074 1.36293,2.12127 2.46294,5.53524c0.15053,0.46716 0.58311,2.37644 0.57922,2.87637c-0.01202,1.54604 0.366,1.95933 -1.27807,2.52207c-1.47361,0.50439 -2.22613,-0.22387 -2.62572,-1.58529c-0.24016,-0.81826 -0.90396,-1.42853 -1.16527,-2.23954c-0.45317,-1.40647 -3.8294,-2.88794 -5.63855,-3.61141c-1.24423,-0.49757 4.85425,-2.97956 6.19882,-3.45645c0,0 1.00486,-0.5726 1.46664,-0.04101z" data-paper-data="{&quot;origRot&quot;:0,&quot;origPos&quot;:null}"/><path d="M290.33093,228.14587c-2.04165,1.79563 -3.0074,1.45308 -3.77902,0.66851c-0.97972,-0.99615 -1.34422,-1.94221 -0.34275,-2.6277c0.33594,-0.22995 1.24846,-0.82399 1.55282,-1.09167c0.84111,-0.73975 1.72614,-1.46524 2.45891,-2.58784c0.97212,-1.48929 1.63106,-0.19642 2.5223,0.86201c0,0 0.82353,0.73818 0.62313,1.27163c-0.58836,1.5662 -0.99374,1.70944 -3.03539,3.50506z" data-paper-data="{&quot;origRot&quot;:0,&quot;origPos&quot;:null}"/><path d="M289.67911,228.46591c-0.97631,1.15927 -1.46349,0.98441 -3.67487,1.68704c-2.21138,0.70263 -2.35221,-0.17153 -2.68688,-0.7428c-0.35803,-0.61115 -0.05794,-2.12087 1.30688,-2.7112c1.36482,-0.59033 2.38669,-1.14827 3.36423,-1.11728c0.84827,0.02689 1.23418,0.06451 1.60395,1.43855c0,0 0.41921,1.05084 0.08668,1.44569z" data-paper-data="{&quot;origRot&quot;:0,&quot;origPos&quot;:null}"/></g><g data-paper-data="{&quot;origPos&quot;:null}" fill="#efd6c8"><path d="M290.51849,213.35461c1.34604,1.85824 1.34099,2.47263 2.38588,6.33131c0.14298,0.52802 0.54141,2.66584 0.52646,3.21267c-0.04624,1.69109 0.32955,2.18526 -1.35673,2.61969c-1.51144,0.38939 -2.26159,-0.49093 -2.63849,-2.02538c-0.22653,-0.92225 -0.88894,-1.66362 -1.13716,-2.58027c-0.43046,-1.58967 -2.83225,-2.2765 -4.65832,-3.26828c-1.25586,-0.68209 4.00476,-4.0333 5.38421,-4.40684c0,0 1.03569,-0.51582 1.49416,0.1171z" data-paper-data="{&quot;origRot&quot;:0,&quot;origPos&quot;:null}"/><path d="M293.42016,223.97765c-0.02016,1.85067 -0.37509,2.18814 -1.77118,4.96402c-1.39609,2.77588 -2.49082,2.89478 -3.55166,2.47794c-1.34693,-0.52926 -2.05775,-1.30269 -1.30177,-2.46865c0.25359,-0.39112 0.95356,-1.4229 1.16168,-1.83671c0.57515,-1.14359 1.19962,-2.29391 1.52646,-3.76923c0.4336,-1.95723 1.5665,-0.97721 2.84727,-0.34323c0,0 1.09607,0.34553 1.0892,0.97587z" data-paper-data="{&quot;origRot&quot;:0,&quot;origPos&quot;:null}"/><path d="M290.3078,230.80915c-1.33437,1.03608 -1.86952,0.80171 -4.55828,1.2303c-2.68875,0.42859 -3.28653,-0.33392 -3.57589,-0.94489c-0.30956,-0.65363 0.88663,-2.24919 2.57326,-2.66998c1.68663,-0.42079 2.96956,-0.85149 4.09887,-0.70026c0.97997,0.13123 1.42139,0.21626 1.61223,1.63223c0,0 0.30431,1.09971 -0.15018,1.4526z" data-paper-data="{&quot;origRot&quot;:0,&quot;origPos&quot;:null}"/></g><g data-paper-data="{&quot;origPos&quot;:null}" fill="#f6ded1"><path d="M288.75999,212.8732c1.52936,1.71054 1.58729,2.32222 3.02204,6.05353c0.19633,0.51059 0.81172,2.59633 0.85287,3.14182c0.12727,1.68692 0.55172,2.13999 -1.08117,2.74491c-1.46359,0.54221 -2.29999,-0.25661 -2.83213,-1.74437c-0.31983,-0.89418 -1.05472,-1.56378 -1.39555,-2.45017c-0.59108,-1.5372 -3.0506,-1.97432 -4.96868,-2.77378c-1.31914,-0.54982 3.57042,-4.42241 4.90434,-4.93532c0,0 0.97739,-0.61923 1.49829,-0.03661z" data-paper-data="{&quot;origRot&quot;:0,&quot;origPos&quot;:null}"/><path d="M292.74449,223.10712c0.3997,1.80709 0.13047,2.21621 -0.60033,5.23623c-0.7308,3.02002 -1.77011,3.38388 -2.89781,3.21825c-1.43183,-0.21029 -2.2994,-0.80254 -1.82728,-2.10947c0.15837,-0.4384 0.60635,-1.60196 0.71529,-2.05216c0.30107,-1.24416 0.64864,-2.50607 0.63269,-4.01707c-0.02116,-2.00457 1.30433,-1.30675 2.69544,-0.97946c0,0 1.14585,0.08819 1.28199,0.70369z" data-paper-data="{&quot;origRot&quot;:0,&quot;origPos&quot;:null}"/><path d="M287.01396,233.50116c-2.41249,1.26214 -3.4429,0.84646 -3.91169,0.35937c-0.50151,-0.52109 0.3456,-2.53131 1.81057,-3.46708c1.46496,-0.93577 2.54407,-1.75243 3.66278,-1.96853c0.97077,-0.18752 1.41629,-0.24742 2.04792,1.03416c0,0 0.63852,0.94565 0.32,1.42485c-0.93517,1.40692 -1.51709,1.35508 -3.92958,2.61723z" data-paper-data="{&quot;origRot&quot;:0,&quot;origPos&quot;:null}"/></g><g data-paper-data="{&quot;origPos&quot;:null}" fill="#fde6d9"><path d="M291.05007,215.75049c0.8788,2.11957 0.73152,2.71607 0.85381,6.71185c0.01674,0.54678 0.01967,2.22011 -0.0019,2.76672c-0.0647,1.63984 -0.16637,2.1466 -1.90742,2.17845c-1.56053,0.02855 -2.33613,-0.46558 -2.3472,-2.0456c-0.00665,-0.94964 -0.47924,-1.82433 -0.50829,-2.77355c-0.05038,-1.64616 -2.22764,-2.87084 -3.77418,-4.25878c-1.06361,-0.95454 4.83038,-2.99551 6.25884,-3.03923c0,0 1.12703,-0.26178 1.42635,0.46015z" data-paper-data="{&quot;origRot&quot;:0,&quot;origPos&quot;:null}"/><path d="M290.98466,229.40008c-0.83005,2.99426 -1.8808,3.32362 -3.00242,3.12088c-1.42411,-0.25743 -2.27167,-0.87798 -1.75668,-2.16862c0.17275,-0.43294 0.65887,-1.58108 0.78261,-2.02744c0.34195,-1.23355 0.73098,-2.4833 0.76489,-3.99401c0.04499,-2.00418 1.34674,-1.263 2.72629,-0.88999c0,0 1.14232,0.12594 1.25808,0.7456c0.33986,1.81931 0.05728,2.21932 -0.77277,5.21358z" data-paper-data="{&quot;origRot&quot;:0,&quot;origPos&quot;:null}"/><path d="M290.08692,230.45483c-0.06003,1.68831 -0.58294,1.94885 -1.97737,4.28737c-1.39443,2.33852 -2.60035,2.9865 -3.25479,2.81699c-0.70012,-0.18134 -0.92061,-2.80009 -0.16252,-4.36441c0.75809,-1.56432 1.24981,-2.82512 2.08974,-3.59501c0.72886,-0.66807 1.07706,-0.95239 2.28624,-0.19129c0,0 1.03914,0.4713 1.0187,1.04634z" data-paper-data="{&quot;origRot&quot;:0,&quot;origPos&quot;:null}"/></g><path d="M291.37405,214.73593c1.54885,5.03223 -12.53477,3.05032 -12.53477,3.05032c0,-2.78133 1.91956,-9.35569 1.84072,-12.1359c-0.0923,-3.25473 4.07729,-2.31794 5.50248,-2.31794c1.91757,0 3.42611,5.66752 5.19157,11.40351z" data-paper-data="{&quot;origRot&quot;:0,&quot;origPos&quot;:null}" fill="url(#color-3)"/><g fill="#fde6d9"><path d="M282.43253,217.02244c-0.3953,1.66874 -0.11144,1.96867 -0.11144,4.29019c0,2.32152 -0.52585,3.22267 -1.77947,3.22267c-1.25362,0 -1.77947,-1.39155 -1.77947,-3.71307c0,-1.05273 -0.01735,-2.69647 0.00964,-3.71113c0.02596,-0.97588 0.79361,-0.98275 1.76983,-0.98275c0,0 2.08359,0.08072 1.89091,0.8941z" data-paper-data="{&quot;origPos&quot;:null}"/><path d="M282.4542,226.82971c0,1.88236 -0.80068,3.7516 -2.30491,3.80064c-0.86624,0.02824 -0.93177,-2.31061 -0.93177,-4.19297c0,-0.86091 -0.29621,-2.72888 -0.23122,-3.58733c0.05822,-0.76901 0.93586,-0.5566 1.6534,-0.5566c0,0 1.36548,-0.12054 1.46213,0.54321c0.15071,1.03497 0.35237,2.11069 0.35237,3.99305z" data-paper-data="{&quot;origPos&quot;:null}"/></g></g></g><g data-paper-data="{&quot;origRot&quot;:0,&quot;index&quot;:null}" stroke-linejoin="miter"><path d="M239.74343,270.34746c-0.24861,5.98211 -1.79046,15.41768 -3.56597,24.4574c-1.14129,5.81065 -2.97167,19.38558 -2.97167,19.38558l-15.79763,1.22537c0,0 0.15592,-9.50823 -0.62321,-31.95099c-0.37694,-10.85762 2.192,-33.79052 -0.80982,-46.57175c-2.43525,-10.36889 19.97232,-12.99108 20.4443,-2.38029c0,0 -0.15115,12.80408 1.09791,21.49162c0.79959,5.56134 2.47472,8.36102 2.22613,14.34312z" data-paper-data="{&quot;origPos&quot;:null}" fill="#191919" stroke="#000000" stroke-width="0" stroke-linecap="butt"/><path d="M243.51665,222.7279c-1.86546,10.88507 -7.01755,18.51279 -7.20226,29.16281c-0.09163,5.2834 -11.69518,-1.11326 -15.62703,-0.9709c-4.47619,-0.24686 -7.22705,-18.64953 -6.25947,-38.26387c0.55826,-11.31666 -3.55431,-28.5886 2.44487,-36.43592c2.18408,-2.85692 16.22474,1.2254 19.29568,1.57691c0,0 6.70602,3.29413 8.69528,8.46743c0,0 2.02971,16.75975 -1.34708,36.46354z" data-paper-data="{&quot;origPos&quot;:null,&quot;origRot&quot;:0}" fill="#000000" stroke="#000000" stroke-width="0" stroke-linecap="butt"/><g data-paper-data="{&quot;origPos&quot;:null}" stroke="none" stroke-linecap="round"><path d="M234.96401,333.29329c0.00609,1.00165 -18.04399,14.80951 -18.04399,14.80951c0,0 -10.62239,-0.71694 -11.99532,-5.61978c-1.37291,-4.90285 0.5511,-9.79193 1.90627,-12.97882c1.35518,-3.18691 5.85215,-5.52282 8.30237,-7.37191c1.10803,-0.83811 0.86312,-7.20548 1.89154,-10.5476c0.50331,-1.63561 3.91306,1.74711 7.52563,2.11232c3.71552,0.37561 8.19322,-2.13025 9.09382,-1.89684c2.27966,0.59082 0.75336,6.44077 1.18075,9.20416c0.62894,4.07481 -0.18687,8.14096 0.13894,12.28895z" data-paper-data="{&quot;origPos&quot;:null}" fill="#000000" stroke-width="1"/><path d="M234.76986,333.94399c-0.49722,1.24205 -5.46573,4.92721 -8.53836,7.42126c-3.06721,2.49052 -5.31761,5.62996 -8.99173,6.70006c-1.67744,0.48854 -4.19017,-1.34972 -4.19017,-1.34972c0,0 5.6883,-3.03013 11.16894,-7.45565c4.98201,-4.02287 10.66341,-10.0676 10.66341,-10.0676c0,0 0.38513,3.50961 -0.1121,4.75166z" data-paper-data="{&quot;origPos&quot;:null,&quot;origRot&quot;:0}" fill="#111111" stroke-width="1.16035"/></g></g><g data-paper-data="{&quot;origRot&quot;:0,&quot;index&quot;:null}" stroke-linejoin="miter"><path d="M246.39295,267.51676c-0.24859,-5.9821 1.42654,-8.78178 2.22613,-14.34312c1.24906,-8.68754 1.09791,-21.49162 1.09791,-21.49162c0.47198,-10.61079 22.87955,-7.9886 20.4443,2.38029c-3.00182,12.78123 -0.43288,35.71413 -0.80982,46.57175c-0.77913,22.44276 -0.62321,31.95099 -0.62321,31.95099l-15.79763,-1.22537c0,0 -1.83038,-13.57493 -2.97167,-19.38558c-1.77551,-9.03972 -3.31736,-18.47529 -3.56597,-24.4574z" data-paper-data="{&quot;origPos&quot;:null}" fill="#191919" stroke="#000000" stroke-width="0" stroke-linecap="butt"/><path d="M242.61978,219.89714c-3.37679,-19.70379 -1.34708,-36.46354 -1.34708,-36.46354c1.98926,-5.1733 8.69528,-8.46743 8.69528,-8.46743c3.07094,-0.35151 17.1116,-4.43383 19.29568,-1.57691c5.99918,7.84732 1.88661,25.11926 2.44487,36.43592c0.96758,19.61434 -1.78328,38.01701 -6.25947,38.26387c-3.93185,-0.14236 -15.5354,6.2543 -15.62703,0.9709c-0.18471,-10.65002 -5.3368,-18.27774 -7.20226,-29.16281z" data-paper-data="{&quot;origPos&quot;:null,&quot;origRot&quot;:0}" fill="#000000" stroke="#000000" stroke-width="0" stroke-linecap="butt"/><g data-paper-data="{&quot;origPos&quot;:null}" stroke="none" stroke-linecap="round"><path d="M251.1724,330.46252c0.32581,-4.14799 -0.49,-8.21414 0.13894,-12.28895c0.42739,-2.76339 -1.09891,-8.61334 1.18075,-9.20416c0.9006,-0.23341 5.3783,2.27245 9.09382,1.89684c3.61257,-0.36521 7.02232,-3.74793 7.52563,-2.11232c1.02842,3.34212 0.78351,9.70949 1.89154,10.5476c2.45022,1.84909 6.94719,4.185 8.30237,7.37191c1.35517,3.18689 3.27918,8.07597 1.90627,12.97882c-1.37293,4.90284 -11.99532,5.61978 -11.99532,5.61978c0,0 -18.05008,-13.80786 -18.04399,-14.80951z" data-paper-data="{&quot;origPos&quot;:null}" fill="#000000" stroke-width="1"/><path d="M251.36657,331.11324c-0.49723,-1.24205 -0.1121,-4.75166 -0.1121,-4.75166c0,0 5.6814,6.04473 10.66341,10.0676c5.48064,4.42552 11.16894,7.45565 11.16894,7.45565c0,0 -2.51273,1.83826 -4.19017,1.34972c-3.67412,-1.0701 -5.92452,-4.20954 -8.99173,-6.70006c-3.07263,-2.49405 -8.04114,-6.17921 -8.53836,-7.42126z" data-paper-data="{&quot;origPos&quot;:null,&quot;origRot&quot;:0}" fill="#111111" stroke-width="1.16035"/></g></g><path d="M279.25252,76.19079c2.18614,0.62033 3.33358,1.79829 2.54123,5.32936c-0.79236,3.53107 -3.8464,5.8907 -5.39305,5.27036c-2.80238,-1.12398 -1.7671,-4.10577 -1.03914,-7.34984c0.79236,-3.53107 1.70482,-3.87022 3.89096,-3.24988z" data-paper-data="{&quot;origRot&quot;:0,&quot;index&quot;:null}" fill="#f6d8c8" stroke="none" stroke-width="0" stroke-linecap="butt" stroke-linejoin="miter"/><path d="M209.37678,80.92603c0.72796,3.24408 1.76323,6.22586 -1.03915,7.34984c-1.54665,0.62033 -4.60068,-1.73929 -5.39305,-5.27036c-0.79237,-3.53107 0.35509,-4.70903 2.54122,-5.32937c2.18614,-0.62033 3.09861,-0.28118 3.89096,3.24989z" data-paper-data="{&quot;origRot&quot;:0}" fill="#f6d8c8" stroke="none" stroke-width="0" stroke-linecap="butt" stroke-linejoin="miter"/><g data-paper-data="{&quot;origPos&quot;:null}" stroke="none" stroke-width="0" stroke-linecap="butt" stroke-linejoin="miter"><path d="M151.29466,111.43815c0.71359,-1.70308 2.72236,-1.77069 2.72236,-1.77069l6.67301,2.43458l-4.06264,9.69604l-6.69791,-2.80642c0,0 0.89294,-6.42642 1.36519,-7.5535z" data-paper-data="{&quot;origPos&quot;:null}" fill="#000000"/><path d="M174.42963,116.21179c8.87969,2.36647 15.81238,1.18517 25.31084,3.80138c9.49845,2.61621 4.26974,21.13849 -5.04599,17.91758c-14.61301,-4.57674 -15.40152,-7.40553 -22.56524,-10.01684c-7.98926,-2.91223 -17.20809,-5.97009 -22.71389,-11.30745c-2.86795,-2.78021 -1.98007,-5.10718 2.00517,-5.2493c7.44549,-0.26552 14.12944,2.48816 23.00912,4.85463z" data-paper-data="{&quot;origPos&quot;:null}" fill="url(#color-4)"/><g data-paper-data="{&quot;origPos&quot;:null}"><path d="M154.21522,114.55617c0.68583,-2.39686 -1.03606,-5.03519 -1.03606,-5.03519l7.65588,2.62503l-4.23657,9.67984l-5.04744,-2.74057z" data-paper-data="{&quot;origPos&quot;:null}" fill="url(#color-5)"/><path d="M153.28704,120.54509c0,0 2.62906,-2.97846 3.42409,-5.85904c0.74904,-2.71395 -3.18487,-4.76236 -3.18487,-4.76236c0,0 42.25955,7.56964 46.52934,9.83325c4.26979,2.26362 6.29682,6.27515 4.23953,12.52435c-1.97766,6.65927 -4.27191,6.89358 -11.20352,5.23043c-11.36866,-2.72777 -39.80456,-16.96663 -39.80456,-16.96663z" data-paper-data="{&quot;origPos&quot;:null,&quot;origRot&quot;:0}" fill="#1e4994"/></g></g><g data-paper-data="{&quot;origPos&quot;:null,&quot;origRot&quot;:0}" stroke="none" stroke-width="0" stroke-linecap="butt" stroke-linejoin="miter"><path d="M235.42661,128.88214c3.29105,2.50146 11.10919,5.53807 7.0271,10.3945c-3.87143,4.60579 -15.45295,7.72168 -30.60237,4.29978c-4.42553,-0.99962 -14.225,-5.0478 -18.64662,-6.06574c-8.01251,-1.84464 -7.38569,-17.85424 0.8,-17.77317c6.73264,0.06667 6.10753,-0.32051 24.8834,4.01504c7.88536,1.82081 10.10405,0.2389 16.53851,5.12958z" data-paper-data="{&quot;origPos&quot;:null,&quot;origRot&quot;:0}" fill="#2152a6"/><path d="M241.47678,140.77226c-4.87118,3.7944 -15.57422,5.9709 -29.13692,2.9074c-4.42553,-0.99962 -14.225,-5.0478 -18.64662,-6.06574c-4.58372,-1.05525 -6.3401,-6.74623 -5.47141,-11.40846c13.40095,2.76691 26.79527,5.5659 40.14506,8.5837c3.86361,0.87339 8.75216,3.75098 13.10988,5.98311z" data-paper-data="{&quot;origPos&quot;:null,&quot;origRot&quot;:0}" fill="#000000"/></g><g stroke-linecap="butt" stroke-linejoin="miter"><g data-paper-data="{&quot;origPos&quot;:null}" stroke="none"><path d="M225.54701,104.20048c0.78428,-4.60024 1.45894,-5.70872 3.08433,-6.52979c1.62538,-0.82107 7.25883,-1.80296 13.51808,-1.85696c6.25925,-0.054 4.47819,-2.08123 10.50786,0.43672c6.02967,2.51795 5.38041,3.28894 5.9889,6.45221c0.60847,3.16326 7.21099,10.78061 3.8652,11.86142c-3.3127,1.07013 -24.81719,4.48538 -40.53583,0.26502c0.24785,-2.09099 0.39366,-4.12427 0.2292,-6.15997c0.01165,-0.03085 0.02317,-0.06172 0.03456,-0.09262l0.2144,-0.2144c0,0 0.36443,-0.66296 0.63583,-1.59528c1.3027,-0.75351 2.29093,-1.58965 2.45745,-2.56635z" data-paper-data="{&quot;origPos&quot;:null}" fill="#000000" stroke-width="0"/><g data-paper-data="{&quot;origPos&quot;:null}"><path d="M224.74739,115.76007c-1.11566,-0.36637 -2.02659,-0.71257 -2.75872,-1.04207c0.18769,-1.60577 0.3129,-3.17807 0.28107,-4.74422c2.44716,-1.31284 5.64009,-2.71986 5.9283,-4.70843c0.14143,-0.97583 0.22325,-1.526 0.45603,-2.48415c0.41105,-1.69191 0.99712,-2.61478 2.53116,-3.43834c1.60768,-0.8631 5.97475,-1.74571 11.38321,-1.79237c5.40846,-0.04667 5.22744,-1.57565 10.30807,0.6955c5.08064,2.27117 3.1653,2.39833 3.69075,5.56233c0.52544,3.16399 6.56419,10.65042 3.32768,11.86605c-3.23651,1.21566 -21.72732,4.4928 -35.14754,0.08571z" data-paper-data="{&quot;origPos&quot;:null}" fill="#09162e" stroke-width="0"/><g data-paper-data="{&quot;origPos&quot;:null}" fill="none" stroke-width="1" font-family="sans-serif" font-weight="normal" font-size="12" text-anchor="start"/></g></g><path d="M253.22239,107.22569c0,2.57941 0.90959,4.0768 1.77368,6.48003c0.39699,1.10413 1.78768,3.05355 1.78768,3.05355c0,0 -11.02727,4.67497 -14.91619,4.67497c-3.34799,0 -12.94142,-4.68268 -12.94142,-4.68268c0,0 1.90803,-2.30428 2.58667,-4.15413c0.57691,-1.57258 0.84748,-3.81849 0.84748,-5.51091c0,-1.80216 -1.85739,-12.27108 -1.85739,-12.27108l24.91296,-0.70874c0,0 -2.19348,8.08875 -2.19348,13.119z" data-paper-data="{&quot;origPos&quot;:null}" fill="url(#color-6)" stroke="none" stroke-width="0"/><g data-paper-data="{&quot;origPos&quot;:null}" fill="#b2bbc1" stroke="none" stroke-width="0"><path d="M269.85678,178.20256c0,0 0.33755,12.33917 0.85258,18.35386c0.65713,7.67425 1.17307,11.46371 2.28938,19.08472c0.83716,5.7153 -18.41688,16.20614 -30.16354,16.55304c-12.29579,0.36313 -32.21092,-7.00469 -30.49736,-17.3363c1.19782,-7.22207 2.11248,-10.997 2.48819,-18.30808c0.30143,-5.86567 0.2703,-18.25634 0.2703,-18.25634z" data-paper-data="{&quot;origPos&quot;:null}"/><path d="M215.0562,178.61857c0.60502,-14.20486 -4.55381,-43.15495 -6.01423,-54.69379c-0.48681,-3.84628 2.23404,-6.79237 2.23404,-6.79237c0,0 6.20619,-6.29613 9.78748,-6.78006c4.27183,-0.57724 9.26066,-0.78341 9.26066,-0.78341c0,0 1.66215,3.67599 4.00611,5.60211c2.58743,2.12619 8.9633,4.11477 8.9633,4.11477c0,0 5.94661,-2.25782 8.79267,-4.98304c2.16439,-2.0725 2.08765,-6.64384 2.08765,-6.64384c0,0 7.08055,2.29182 11.41758,2.2544c2.5236,-0.02178 4.50011,2.36654 7.3383,5.3706c2.83821,3.00408 3.51151,5.41157 3.2866,7.65361c-0.67471,6.72608 -7.05814,40.09542 -6.27354,56.1177z" data-paper-data="{&quot;origPos&quot;:null}"/></g><path d="M273.86145,225.15885c0,6.10007 -18.36445,13.00873 -33,13.00873c-14.63555,0 -29.5,-5.92687 -29.5,-12.02694c0,-4.09943 1.47077,-8.85725 1.47077,-8.85725c0,0 18.46258,3.44115 29.79953,3.40348c11.893,-0.03951 29.72432,-3.60125 29.72432,-3.60125c0,0 1.50538,1.97316 1.50538,8.07323z" data-paper-data="{&quot;origPos&quot;:null}" fill="#000000" stroke="none" stroke-width="0"/><g data-paper-data="{&quot;origPos&quot;:null}"><path d="M249.58859,174.22002c-0.5402,-16.51425 -0.77144,-45.23876 -0.77144,-45.23876c-0.07119,-8.25016 6.34414,-10.96317 5.98979,-19.20603c0.37972,-0.95473 -1.17715,-2.33374 -1.27946,-3.65593c0.33358,0.09974 0.67,0.20069 1.00756,0.30237c10.11191,3.04606 21.57625,5.19707 21.66754,15.77707c0.12156,14.08929 -4.26694,25.38443 -4.09197,39.47307c0.29966,24.12906 1.61046,55.45096 1.61046,55.45096c0,0 -5.76742,3.98917 -9.7448,4.87723c-4.68922,1.047 -11.15929,5.56052 -12.16146,-0.43108c0,0 -1.59177,-27.95337 -2.22621,-47.34887z" data-paper-data="{&quot;origPos&quot;:null}" fill="#255dbc" stroke="#000000" stroke-width="0"/><path d="M253.54768,152.42352l-4.34734,9.33687c0,0 0.66763,-10.5686 -0.98817,-17.45942c-1.19161,-4.95903 -0.91635,-8.1392 -0.53073,-13.22478c0.20582,-2.71434 2.86062,-6.9753 2.86062,-6.9753l25.99606,-0.57778c0,0 0.12608,5.9154 -0.2199,9.70523c-0.48602,5.32381 -1.91204,13.64737 -1.91204,13.64737z" data-paper-data="{&quot;origPos&quot;:null}" fill="#09162e" stroke="none" stroke-width="0"/><path d="M249.7079,125.00227c0,0 0.46421,-2.54466 1.87528,-5.03117c1.98829,-3.50369 3.57534,-5.68295 3.40231,-9.70778c0.43282,-1.08827 -1.41419,-2.72777 -1.582,-4.20606c2.48773,0.66674 7.06981,1.43205 9.18801,2.13222c2.75077,0.90927 6.33916,2.90745 6.33916,2.90745l-0.88615,13.19862z" data-paper-data="{&quot;origPos&quot;:null}" fill="#09162e" stroke="none" stroke-width="0"/><path d="M269.9226,144.13926c-1.21891,-0.27702 -0.94189,-1.49594 -0.94189,-1.49594l0.67291,-1.02614c0.2407,-0.96278 1.05277,-3.87549 0.87935,-4.28016c-0.44045,-1.0277 -1.43348,-1.63844 -1.25,-2.91667c0.05698,-0.39695 0.9375,-3.49306 2.03278,-3.38388c0.05736,0.00572 0.10124,0.03029 0.13619,0.06779c0.13103,-0.05526 0.54489,0.12618 0.44452,0.02878l-1.30797,-0.327c-0.55665,-0.12632 -0.97219,-0.62414 -0.97219,-1.21902c0,-0.41415 0.20141,-0.78127 0.51164,-1.00873l1.3217,-0.99127l0.05317,0.0709c0.14273,-0.07646 0.27829,-0.14249 0.41414,-0.20167l-0.02048,-0.0819l0.30317,-0.07579v-0.29486h1.33333c0.04946,0 0.09825,0.00287 0.14621,0.00846c0.36943,0.02918 0.86206,0.20452 1.05358,0.88969c0.00885,0.03021 0.01658,0.0609 0.02316,0.09201c0.15666,0.69841 -0.19675,1.08652 -0.50988,1.28663c-0.12939,0.09002 -0.2766,0.15623 -0.43528,0.19224l-0.42723,0.1068c0.37343,0.42179 0.65247,0.86239 0.6008,1.11516c-0.42561,2.08219 -2.11033,2.24159 -2.56748,3.77624c-0.03517,0.11807 0.31392,-0.16214 0.36611,-0.05055c0.3533,0.75537 0.85933,1.66109 1,2.83334c0.20428,1.70235 -0.29662,3.34037 -0.70399,4.96984l-0.66043,0.97386c0,0 -0.27703,1.21891 -1.49595,0.94189zM271.69572,131.73816c0.01533,0.0274 0.03266,0.05251 0.05259,0.07454c0.06442,0.07116 0.02141,0.02406 -0.05259,-0.07454z" data-paper-data="{&quot;origPos&quot;:null}" fill="#ffffff" stroke="none" stroke-width="0.5"/><path d="M250.19967,124.25368v-0.83334h26.16667l0.3,0.83334z" data-paper-data="{&quot;origPos&quot;:null}" fill="#ffffff" stroke="none" stroke-width="0"/><path d="M248.7024,128.93494l-1.04098,2.42064l0.27671,-2.75283l2.25883,-5.197l0.76427,0.33218z" data-paper-data="{&quot;origPos&quot;:null,&quot;origRot&quot;:0}" fill="#ffffff" stroke="none" stroke-width="0"/></g><g data-paper-data="{&quot;origPos&quot;:null,&quot;index&quot;:null}"><path d="M234.83394,174.04148c-0.63444,19.3955 -2.22621,47.34887 -2.22621,47.34887c-1.00217,5.9916 -7.47224,1.47808 -12.16146,0.43108c-3.97738,-0.88806 -9.7448,-4.87723 -9.7448,-4.87723c0,0 1.3108,-31.3219 1.61046,-55.45096c0.17497,-14.08864 -4.21353,-25.38378 -4.09197,-39.47307c0.09129,-10.58 11.55563,-12.73101 21.66754,-15.77707c0.33756,-0.10168 0.67398,-0.20263 1.00756,-0.30237c-0.10231,1.32219 -1.65918,2.7012 -1.27946,3.65593c-0.35435,8.24286 6.06098,10.95587 5.98979,19.20603c0,0 -0.23124,28.72451 -0.77144,45.23876z" data-paper-data="{&quot;origPos&quot;:null}" fill="#255dbc" stroke="#000000" stroke-width="0"/><path d="M210.19487,146.87571c0,0 -1.42602,-8.32356 -1.91204,-13.64737c-0.34598,-3.78983 -0.2199,-9.70523 -0.2199,-9.70523l25.99606,0.57778c0,0 2.6548,4.26096 2.86062,6.9753c0.38562,5.08558 0.66088,8.26575 -0.53073,13.22478c-1.6558,6.89082 -0.98817,17.45942 -0.98817,17.45942l-4.34734,-9.33687z" data-paper-data="{&quot;origPos&quot;:null}" fill="#09162e" stroke="none" stroke-width="0"/><path d="M216.55659,124.29555l-0.88615,-13.19862c0,0 3.58839,-1.99818 6.33916,-2.90745c2.1182,-0.70017 6.70028,-1.46548 9.18801,-2.13222c-0.16781,1.47829 -2.01482,3.11779 -1.582,4.20606c-0.17303,4.02483 1.41402,6.20409 3.40231,9.70778c1.41107,2.48651 1.87528,5.03117 1.87528,5.03117z" data-paper-data="{&quot;origPos&quot;:null}" fill="#09162e" stroke="none" stroke-width="0"/><path d="M213.18252,143.19737l-0.66043,-0.97386c-0.40736,-1.62946 -0.90827,-3.26748 -0.70399,-4.96984c0.14067,-1.17225 0.6467,-2.07797 1,-2.83334c0.0522,-0.11159 0.40129,0.16862 0.36612,0.05055c-0.45714,-1.53464 -2.14187,-1.69404 -2.56748,-3.77623c-0.05167,-0.25277 0.22736,-0.69336 0.6008,-1.11516l-0.42723,-0.1068c-0.15868,-0.03601 -0.30589,-0.10221 -0.43528,-0.19224c-0.31313,-0.20011 -0.66653,-0.58822 -0.50987,-1.28663c0.00658,-0.03111 0.01431,-0.0618 0.02315,-0.09201c0.19153,-0.68517 0.68416,-0.86051 1.05359,-0.88969c0.04797,-0.00559 0.09675,-0.00846 0.14621,-0.00846h1.33334v0.29486l0.30317,0.07579l-0.02048,0.0819c0.13585,0.05918 0.2714,0.12521 0.41413,0.20167l0.05318,-0.0709l1.3217,0.99127c0.31022,0.22746 0.51163,0.59457 0.51163,1.00873c0,0.59488 -0.41555,1.09269 -0.97219,1.21902l-1.30796,0.327c-0.10037,0.0974 0.3135,-0.08404 0.44452,-0.02878c0.03495,-0.03749 0.07883,-0.06207 0.13619,-0.06779c1.09529,-0.10918 1.9758,2.98693 2.03278,3.38388c0.18348,1.27823 -0.80955,1.88896 -1.25,2.91667c-0.17343,0.40467 0.63865,3.31738 0.87935,4.28016l0.67291,1.02614c0,0 0.27703,1.21891 -0.94189,1.49594c-1.21892,0.27702 -1.49595,-0.94189 -1.49595,-0.94189zM212.85279,131.8127c0.01994,-0.02202 0.03726,-0.04714 0.05259,-0.07454c-0.07399,0.0986 -0.11701,0.1457 -0.05259,0.07454z" data-paper-data="{&quot;origPos&quot;:null}" fill="#ffffff" stroke="none" stroke-width="0.5"/><path d="M207.93477,124.25368l0.3,-0.83334h26.16667v0.83334z" data-paper-data="{&quot;origPos&quot;:null}" fill="#ffffff" stroke="none" stroke-width="0"/><path d="M233.63989,123.73794l0.76427,-0.33218l2.25882,5.197l0.27671,2.75283l-1.04098,-2.42064z" data-paper-data="{&quot;origPos&quot;:null,&quot;origRot&quot;:0}" fill="#ffffff" stroke="none" stroke-width="0"/></g></g><path d="M279.69289,66.81132c0,21.8096 -16.6841,39.48976 -37.26497,39.48976c-20.58089,0 -37.26497,-17.68016 -37.26497,-39.48976c0,-21.8096 16.6841,-39.48976 37.26497,-39.48976c20.58089,0 37.26497,17.68016 37.26497,39.48976z" fill="#fce4d6" stroke="#fce4d7" stroke-width="2.5" stroke-linecap="butt" stroke-linejoin="miter"/><path d="M270.75133,36.07957l-14.25919,4.44308l-8.64506,0.34442l-25.31523,7.88733c-5.09749,5.95855 -9.54057,11.77933 -10.36719,17.01459c-1.79101,-1.48103 -1.58435,-4.1331 -1.23993,-6.8885c-4.27087,7.43958 -1.20549,15.15469 -0.06888,23.17979c-5.16637,-5.95855 -8.61062,-12.88149 -7.81844,-20.94103c-2.54874,5.16637 -6.75073,6.75073 -11.57268,6.8885c9.78167,-10.7805 1.79101,-21.49211 14.4314,-26.3485c-6.95738,2.7554 -10.91827,-1.27437 -12.57151,-4.54641c17.63455,-1.72212 7.95621,-18.11675 35.85463,-16.18797c-9.33391,-0.72329 -12.29597,-3.75423 -13.91476,-7.81844c17.669,5.40747 23.66199,-11.26269 47.11732,9.54057c0.44775,-1.65324 0.51664,-2.92761 -2.06655,-3.61646c7.02627,-0.03444 17.94454,6.81961 18.59894,18.87448c1.65324,-2.47986 1.89434,-1.89434 1.30881,-4.23643c8.23175,13.2948 4.27087,26.69293 -2.65207,43.87973c-0.27554,-11.43491 -3.47869,-14.94804 -1.06772,-27.03735" fill="#7f5732" stroke="#010101" stroke-width="1.995" stroke-linecap="round" stroke-linejoin="round"/><path d="M279.07332,64.52906c-5.54524,-3.61646 -14.63806,-8.98949 -11.29714,-16.9457c-31.23934,15.49912 -46.39403,11.26269 -55.83127,0c4.06421,1.68768 8.0251,3.13427 10.36719,1.23993c-4.47752,-1.72212 -6.68184,-4.06421 -8.12843,-6.6474c3.13427,1.51547 6.09632,2.54874 8.36952,1.23993c-5.71745,-2.68651 -7.06071,-7.06071 -6.8885,-12.08931c5.64857,6.19965 14.36252,7.40513 24.21307,6.78517c-8.61062,-2.23876 -14.08698,-5.09749 -13.12259,-9.19614c13.74255,5.54524 23.5931,-6.8885 33.34033,3.78867l12.19264,2.7554c5.68301,8.19731 7.68067,18.01342 6.78517,29.06946z" fill="#7f5732" stroke="none" stroke-width="1" stroke-linecap="butt" stroke-linejoin="miter"/><path d="M267.77618,47.54891l5.16637,-0.48219l6.13076,17.46234c-4.09866,-3.54758 -10.98715,-10.33275 -11.29714,-16.98015z" fill="#7f5732" stroke="none" stroke-width="1" stroke-linecap="butt" stroke-linejoin="miter"/><path d="M280.07332,64.52906c-5.54524,-3.61646 -14.63806,-8.98949 -11.29714,-16.9457c-31.23934,15.49912 -46.39403,11.26269 -55.83127,0c4.06421,1.68768 8.0251,3.13427 10.36719,1.23993c-4.47752,-1.72212 -6.68184,-4.06421 -8.12843,-6.6474c3.13427,1.51547 6.09632,2.54874 8.36952,1.23993c-5.71745,-2.68651 -7.06071,-7.06071 -6.8885,-12.08931c5.64857,6.19965 14.36252,7.40513 24.21307,6.78517c-8.61062,-2.23876 -14.08698,-5.09749 -13.12259,-9.19614c13.74255,5.54524 23.5931,-6.8885 33.34033,3.78867" fill="#7f5732" stroke="#010101" stroke-width="1.995" stroke-linecap="round" stroke-linejoin="round"/><path d="M241.13691,95.20732c-3.40451,0.45059 -7.8025,0.82471 -7.74941,-0.15592c0.0531,-0.98061 3.25798,-0.07956 7.90817,-0.69505c4.65025,-0.61547 11.6482,-3.02329 9.95503,-1.66921c-0.91628,1.10112 -6.70931,2.0696 -10.11385,2.52017z" fill="#000000" stroke="#000000" stroke-width="0" stroke-linecap="butt" stroke-linejoin="miter"/><g stroke-linecap="butt" stroke-linejoin="miter"><path d="M226.90918,64.59655c5.22463,-0.38732 8.82578,1.65788 8.82578,1.65788c0.7139,0.3878 0.76121,1.08891 0.33315,1.3018c-0.42803,0.21292 -1.02231,0.25117 -1.73619,-0.13662c-2.52373,-1.37089 -3.77546,-1.2699 -6.89263,-1.2501c-4.15034,0.02642 -10.51294,2.37481 -9.85412,1.97042c1.42197,-0.87287 5.09509,-3.22993 9.32397,-3.54343z" data-paper-data="{&quot;origRot&quot;:0,&quot;origPos&quot;:null,&quot;index&quot;:null}" fill="#38301c" stroke="none" stroke-width="0"/><path d="M257.37583,64.59655c4.22887,0.3135 7.902,2.67055 9.32397,3.54343c0.65883,0.4044 -5.70379,-1.94401 -9.85412,-1.97042c-3.11715,-0.01982 -4.3689,-0.12078 -6.89261,1.2501c-0.71387,0.3878 -1.30816,0.34954 -1.73619,0.13662c-0.42805,-0.21289 -0.38075,-0.914 0.33314,-1.3018c0,0 3.60117,-2.0452 8.82579,-1.65788z" data-paper-data="{&quot;origRot&quot;:0,&quot;origPos&quot;:null,&quot;index&quot;:null}" fill="#38301c" stroke="none" stroke-width="0"/><path d="M225.49549,78.9009c-4.16558,-0.80143 -6.03048,-1.60212 -6.23324,-4.85755c-0.07786,-1.25016 0.068,-2.12676 0.85115,-2.94165c0.73414,-0.76391 2.31405,-1.56685 3.31263,-1.75667c2.39132,-0.4546 4.25482,-0.56633 6.37158,-0.15909c4.91826,1.65041 5.35769,5.69349 5.35769,5.69349c0,0 -0.5388,1.44105 -1.41855,2.32029c-2.94889,2.94713 -8.24121,1.70115 -8.24121,1.70115z" data-paper-data="{&quot;origPos&quot;:null}" fill="#000000" stroke="none" stroke-width="0"/><path d="M233.34964,77.82331c-1.01047,1.20411 -2.57491,1.44673 -2.57491,1.44673c-1.85023,-0.06716 -2.96244,-0.00033 -4.76818,-0.31832c-1.856,-0.32685 -3.17497,-0.34994 -4.37754,-1.59433c-1.20349,-1.24531 -1.8298,-2.5991 -1.57279,-3.72532c0.12683,-0.55583 0.04746,-1.90868 1.64399,-2.49476c1.17611,-0.43175 2.09138,-1.3021 3.10745,-1.43131c2.40597,-0.30592 2.82376,-0.37938 5.19643,0.07712c3.73067,1.76739 4.86815,5.40618 4.86815,5.40618c0,0 -0.51212,1.42992 -1.5226,2.63401z" data-paper-data="{&quot;origPos&quot;:null}" fill="#ffffff" stroke="none" stroke-width="0"/><path d="M232.35565,73.33485c0.22535,1.3839 -0.08785,2.73769 -0.77641,3.80637c-0.68856,1.0687 -1.92764,1.46162 -3.20238,1.70629c-1.27469,0.24471 -2.34671,0.29538 -3.33112,-0.45221c-0.9844,-0.74757 -1.70622,-1.90272 -1.93163,-3.28661c-0.12119,-0.74426 -0.00183,-1.47984 0.16311,-2.16699c4.04136,-1.52968 4.66626,-2.31841 8.98834,-0.047c0.03562,0.14391 0.06576,0.29068 0.09009,0.44015z" data-paper-data="{&quot;origPos&quot;:null}" fill="#898151" stroke="#000000" stroke-width="0"/><path d="M230.46653,70.15623c0.98439,0.74757 1.70618,1.90268 1.9315,3.28663c0.04778,0.29348 -0.01342,0.58562 -0.01251,0.87396c-0.71146,-0.15493 -0.92382,-1.38383 -4.62205,-1.4368c-3.3656,-0.04821 -4.12291,0.88323 -4.67034,1.13246c0.0542,-0.94977 0.35332,-1.84714 0.83982,-2.60221c0.68856,-1.0687 1.75259,-1.85238 3.02734,-2.09705c1.27473,-0.24464 2.52177,0.09542 3.50622,0.84302z" data-paper-data="{&quot;origPos&quot;:null}" fill="#4d461c" stroke="#000000" stroke-width="0"/><path d="M227.36947,79.08486c-1.34613,0 -3.40394,0.10479 -3.40394,0.10479v-0.43673c0,0 2.09325,-0.01009 3.40394,-0.01009c1.7005,0 4.31194,0.01009 4.31194,0.01009v0.43673c0,0 -2.64687,-0.10479 -4.31194,-0.10479z" data-paper-data="{&quot;origPos&quot;:null}" fill="#000000" stroke="none" stroke-width="0"/><path d="M227.23078,69.45671c-1.26143,0.01562 -4.47394,1.23055 -4.47394,1.23055c0,0 -3.25728,1.35958 -2.75157,0.61186c0.49788,-0.73613 1.67293,-1.34864 3.01764,-1.85465c1.68876,-0.63547 3.04602,-0.93922 4.87882,-0.90564c2.83142,0.44656 4.49164,1.65138 5.63075,3.02427c-0.14826,0.17334 -1.5813,-0.78395 -1.69249,-0.58294c-0.43574,-0.32082 -0.87081,-0.6187 -1.45419,-0.92629c-0.9279,-0.48922 -1.89358,-0.61277 -3.15501,-0.59715z" data-paper-data="{&quot;origPos&quot;:null,&quot;origRot&quot;:0}" fill="#000000" stroke="#000000" stroke-width="0"/><path d="M226.39614,71.18697c0.59181,-0.51968 1.34144,-0.75611 2.10775,-0.58602c0.76634,0.17008 1.40589,0.71484 1.81984,1.45779c0.41398,0.74299 0.60226,1.68409 0.46678,2.64613c-0.13552,0.96204 -0.56943,1.76507 -1.16117,2.28476c-0.59178,0.51968 -1.3414,0.75611 -2.1077,0.58601c-0.76632,-0.17008 -1.40593,-0.71484 -1.8199,-1.45782c-0.41398,-0.74299 -0.60224,-1.68405 -0.46676,-2.64607c0.13548,-0.96205 0.56938,-1.7651 1.16117,-2.28482z" data-paper-data="{&quot;origPos&quot;:null}" fill="#000000" stroke="none" stroke-width="1"/><path d="M229.11488,71.68342c0.17841,-0.24288 0.42852,-0.37692 0.70765,-0.34426c0.27911,0.03254 0.53523,0.22567 0.72331,0.51142c0.18814,0.28571 0.30814,0.66414 0.31551,1.06681c0.00737,0.40264 -0.09922,0.75457 -0.27761,0.99754c-0.17841,0.24288 -0.42852,0.3769 -0.70765,0.34425c-0.27912,-0.03262 -0.53519,-0.22568 -0.7233,-0.51143c-0.18808,-0.28566 -0.30815,-0.66408 -0.31553,-1.0668c-0.00737,-0.40264 0.09926,-0.75464 0.27767,-0.99763z" data-paper-data="{&quot;origPos&quot;:null,&quot;origRot&quot;:0}" fill="#ffffff" stroke="none" stroke-width="1"/><path d="M225.19431,74.66062c0.15706,-0.10324 0.35606,-0.15022 0.55952,-0.1164c0.2035,0.03381 0.37322,0.14207 0.48313,0.28969c0.10987,0.14764 0.15988,0.3346 0.12389,0.52589c-0.03593,0.19124 -0.15116,0.35082 -0.30825,0.45405c-0.15706,0.10324 -0.35601,0.15031 -0.55952,0.11645c-0.20345,-0.03379 -0.37314,-0.142 -0.48303,-0.28964c-0.10987,-0.1476 -0.1599,-0.33465 -0.12389,-0.52593c0.03602,-0.19128 0.15116,-0.35075 0.30821,-0.45399z" data-paper-data="{&quot;origPos&quot;:null}" fill="#ffffff" stroke="none" stroke-width="1"/><path d="M250.54828,77.19974c-0.87976,-0.87924 -1.41855,-2.32028 -1.41855,-2.32028c0,0 0.43942,-4.04306 5.35768,-5.69349c2.11675,-0.40725 3.98026,-0.29551 6.37158,0.15907c0.99855,0.18983 2.57847,0.99274 3.3126,1.75667c0.78313,0.81488 0.929,1.69148 0.85115,2.94165c-0.20276,3.2554 -2.06766,4.05612 -6.23324,4.85755c0,0 -5.29232,1.24597 -8.24121,-1.70115z" data-paper-data="{&quot;origPos&quot;:null}" fill="#000000" stroke="none" stroke-width="0"/><path d="M249.41273,75.18932c0,0 1.13748,-3.6388 4.86814,-5.40618c2.37266,-0.45651 2.79047,-0.38304 5.19643,-0.07712c1.01607,0.12922 1.93133,0.99956 3.10745,1.43131c1.59653,0.58609 1.51714,1.93893 1.64399,2.49477c0.25703,1.12622 -0.3693,2.47999 -1.5728,3.72532c-1.20257,1.24438 -2.52153,1.26748 -4.37754,1.59433c-1.80574,0.318 -2.91796,0.25115 -4.76818,0.31831c0,0 -1.56443,-0.24262 -2.5749,-1.44673c-1.01047,-1.20409 -1.5226,-2.63401 -1.5226,-2.63401z" data-paper-data="{&quot;origPos&quot;:null}" fill="#ffffff" stroke="none" stroke-width="0"/><path d="M253.89909,70.05384c-0.58339,0.30758 -1.01846,0.60548 -1.45419,0.9263c-0.11118,-0.201 -1.54424,0.75627 -1.69249,0.58294c1.13912,-1.37287 2.79932,-2.57767 5.63074,-3.02425c1.83279,-0.03358 3.19009,0.27015 4.87884,0.90564c1.34469,0.50601 2.51976,1.11851 3.01764,1.85465c0.50573,0.74772 -2.75157,-0.61186 -2.75157,-0.61186c0,0 -3.21249,-1.21492 -4.47393,-1.23055c-1.26143,-0.01562 -2.22713,0.10794 -3.15503,0.59715z" data-paper-data="{&quot;origPos&quot;:null,&quot;origRot&quot;:0}" fill="#000000" stroke="#000000" stroke-width="0"/><path d="M251.92935,73.33487c0.02434,-0.14947 0.05446,-0.29627 0.09008,-0.44015c4.32206,-2.27143 4.94695,-1.48268 8.98834,0.047c0.16496,0.68715 0.28431,1.42273 0.16313,2.16699c-0.2254,1.3839 -0.94725,2.53905 -1.93163,3.28661c-0.9844,0.7476 -2.05641,0.69693 -3.33112,0.45221c-1.27473,-0.2447 -2.51381,-0.63759 -3.20237,-1.70629c-0.68856,-1.06869 -1.00177,-2.42248 -0.77641,-3.80637z" data-paper-data="{&quot;origPos&quot;:null}" fill="#898151" stroke="#000000" stroke-width="0"/><path d="M253.81846,70.15623c0.98443,-0.7476 2.23147,-1.08766 3.5062,-0.84302c1.27474,0.24466 2.33878,1.02834 3.02734,2.09705c0.48651,0.75507 0.78564,1.65244 0.83982,2.60221c-0.54743,-0.24924 -1.30473,-1.18069 -4.67034,-1.13246c-3.69823,0.05297 -3.91058,1.28185 -4.62205,1.4368c0.00091,-0.28834 -0.06029,-0.58045 -0.01251,-0.87396c0.22534,-1.38392 0.94712,-2.53906 1.9315,-3.28663z" data-paper-data="{&quot;origPos&quot;:null}" fill="#4d461c" stroke="#000000" stroke-width="0"/><path d="M252.6035,79.18966v-0.43673c0,0 2.61143,-0.01009 4.31194,-0.01009c1.31069,0 3.40394,0.01009 3.40394,0.01009v0.43673c0,0 -2.0578,-0.10479 -3.40394,-0.10479c-1.66508,0 -4.31194,0.10479 -4.31194,0.10479z" data-paper-data="{&quot;origPos&quot;:null}" fill="#000000" stroke="none" stroke-width="0"/><path d="M254.82167,71.18697c0.59181,-0.51968 1.34144,-0.75611 2.10774,-0.58602c0.76634,0.17008 1.40589,0.71484 1.81984,1.45779c0.41398,0.74299 0.60226,1.68409 0.46678,2.64613c-0.13552,0.96204 -0.56943,1.76507 -1.16117,2.28476c-0.59178,0.51968 -1.3414,0.75611 -2.1077,0.58601c-0.76632,-0.17008 -1.40593,-0.71484 -1.8199,-1.45782c-0.41398,-0.74299 -0.60224,-1.68405 -0.46676,-2.64607c0.13548,-0.96205 0.56938,-1.7651 1.16117,-2.28482z" data-paper-data="{&quot;origPos&quot;:null}" fill="#000000" stroke="none" stroke-width="1"/><path d="M257.66347,71.68342c0.17841,-0.24288 0.42851,-0.37692 0.70765,-0.34426c0.27911,0.03254 0.53523,0.22567 0.72331,0.51142c0.18814,0.28571 0.30815,0.66414 0.31552,1.06681c0.00737,0.40264 -0.09922,0.75457 -0.27761,0.99754c-0.17841,0.24288 -0.42852,0.3769 -0.70765,0.34425c-0.27912,-0.03262 -0.53518,-0.22568 -0.7233,-0.51143c-0.18808,-0.28566 -0.30815,-0.66408 -0.31553,-1.0668c-0.00737,-0.40264 0.09926,-0.75464 0.27767,-0.99763z" data-paper-data="{&quot;origPos&quot;:null,&quot;origRot&quot;:0}" fill="#ffffff" stroke="none" stroke-width="1"/><path d="M253.74288,74.66062c0.15706,-0.10324 0.35606,-0.15022 0.55954,-0.1164c0.2035,0.03381 0.3732,0.14207 0.4831,0.28969c0.10987,0.14764 0.15988,0.3346 0.12391,0.52589c-0.03593,0.19124 -0.15117,0.35082 -0.30827,0.45405c-0.15706,0.10324 -0.35599,0.15031 -0.55952,0.11645c-0.20345,-0.03379 -0.37316,-0.142 -0.48306,-0.28964c-0.10987,-0.1476 -0.1599,-0.33465 -0.12388,-0.52593c0.03602,-0.19128 0.15116,-0.35075 0.30821,-0.45399z" data-paper-data="{&quot;origPos&quot;:null}" fill="#ffffff" stroke="none" stroke-width="1"/></g><path d="M243.78004,86.68647l0.28186,-7.07782l0.47315,6.89442c0,0 -0.2645,0.6221 -0.43032,0.77649c-0.03105,0.01511 -0.32468,-0.5931 -0.32468,-0.5931z" data-paper-data="{&quot;origPos&quot;:null}" fill="url(#color-7)" stroke="none" stroke-width="0" stroke-linecap="butt" stroke-linejoin="miter"/><path d="M238.99686,86.25794c-0.02331,-0.54193 0.38534,-1.05694 1.02368,-1.49672c0.09957,-0.0686 0.21168,-0.07561 0.32767,-0.03849c-0.23139,0.46086 -0.36014,0.97207 -0.36014,1.51024c0,0.33611 0.05022,0.6617 0.14429,0.97108c-0.61366,-0.02206 -1.11333,-0.4306 -1.1355,-0.94609z" data-paper-data="{&quot;origPos&quot;:null}" fill="#f9ddce" stroke="none" stroke-width="0" stroke-linecap="butt" stroke-linejoin="miter"/><path d="M243.84432,86.5868l0.31055,0.55985c0,0 -1.28583,0.58738 -2.49876,0.58443c-1.23647,-0.00301 -2.48254,-0.74949 -1.99701,-1.04644c0,0 0.17515,0.13776 0.622,0.14075c0.65046,0.14448 0.70833,0.53497 1.50523,0.51551c0.83937,-0.02049 0.9175,-0.23144 1.44075,-0.57685c0.35864,-0.04643 0.61723,-0.17724 0.61723,-0.17724z" data-paper-data="{&quot;origPos&quot;:null,&quot;index&quot;:null}" fill="#f4d7c8" stroke="none" stroke-width="0" stroke-linecap="butt" stroke-linejoin="miter"/><path d="M241.18373,87.17297c0.00641,0.14903 -0.30417,0.2791 -0.69371,0.29053c-0.38954,0.01141 -0.71052,-0.10014 -0.71693,-0.24916c-0.00641,-0.14903 0.30417,-0.27911 0.69371,-0.29053c0.38954,-0.01141 0.71052,0.10014 0.71693,0.24916z" data-paper-data="{&quot;origPos&quot;:null}" fill="url(#color-8)" stroke="none" stroke-width="0" stroke-linecap="butt" stroke-linejoin="miter"/><path d="M243.7859,87.13336c0.00641,0.14903 -0.30418,0.27909 -0.69371,0.29052c-0.38954,0.01141 -0.71052,-0.10014 -0.71693,-0.24917c-0.00641,-0.14903 0.30417,-0.27911 0.69371,-0.29052c0.38954,-0.01141 0.71052,0.10014 0.71693,0.24917z" data-paper-data="{&quot;origPos&quot;:null}" fill="url(#color-9)" stroke="none" stroke-width="0" stroke-linecap="butt" stroke-linejoin="miter"/><path d="M244.72034,86.17902c-0.02218,0.5155 -0.22835,0.97664 -0.84202,0.99871c0.09408,-0.30938 -0.1492,-0.68759 -0.1492,-1.0237c0,-0.53817 -0.12875,-1.04938 -0.36013,-1.51024c0.11599,-0.03712 0.2281,-0.03011 0.32767,0.03849c0.63834,0.43978 1.047,0.95479 1.02369,1.49672z" data-paper-data="{&quot;origPos&quot;:null,&quot;index&quot;:null}" fill="#f9ddce" stroke="none" stroke-width="0" stroke-linecap="butt" stroke-linejoin="miter"/><path d="M243.78004,85.75436l0.28186,-7.07782l0.47315,6.89442c0,0 -0.2645,0.6221 -0.43032,0.77649c-0.03105,0.01511 -0.32468,-0.5931 -0.32468,-0.5931z" fill="url(#color-10)" stroke="none" stroke-width="0" stroke-linecap="butt" stroke-linejoin="miter"/><path d="M238.99686,85.32583c-0.02331,-0.54193 0.38534,-1.05694 1.02368,-1.49672c0.09957,-0.0686 0.21168,-0.07561 0.32767,-0.03849c-0.23139,0.46086 -0.36014,0.97207 -0.36014,1.51024c0,0.33611 0.05022,0.6617 0.14429,0.97108c-0.61366,-0.02206 -1.11333,-0.4306 -1.1355,-0.94609z" fill="#f9ddce" stroke="none" stroke-width="0" stroke-linecap="butt" stroke-linejoin="miter"/><path d="M243.84432,85.65469l0.31055,0.55985c0,0 -1.28583,0.58738 -2.49876,0.58443c-1.23647,-0.00301 -2.48254,-0.74949 -1.99701,-1.04644c0,0 0.17515,0.13776 0.622,0.14075c0.65046,0.14448 0.70833,0.53497 1.50523,0.51551c0.83937,-0.02049 0.9175,-0.23144 1.44075,-0.57685c0.35864,-0.04643 0.61723,-0.17724 0.61723,-0.17724z" data-paper-data="{&quot;index&quot;:null}" fill="#f4d7c8" stroke="none" stroke-width="0" stroke-linecap="butt" stroke-linejoin="miter"/><path d="M241.18373,86.24086c0.00641,0.14903 -0.30417,0.2791 -0.69371,0.29053c-0.38954,0.01141 -0.71052,-0.10014 -0.71693,-0.24916c-0.00641,-0.14903 0.30417,-0.27911 0.69371,-0.29053c0.38954,-0.01141 0.71052,0.10014 0.71693,0.24916z" fill="url(#color-11)" stroke="none" stroke-width="0" stroke-linecap="butt" stroke-linejoin="miter"/><path d="M243.7859,86.20125c0.00641,0.14903 -0.30418,0.27909 -0.69371,0.29052c-0.38954,0.01141 -0.71052,-0.10014 -0.71693,-0.24917c-0.00641,-0.14903 0.30417,-0.27911 0.69371,-0.29052c0.38954,-0.01141 0.71052,0.10014 0.71693,0.24917z" fill="url(#color-12)" stroke="none" stroke-width="0" stroke-linecap="butt" stroke-linejoin="miter"/><path d="M239.63605,86.00409c0.00264,-0.22416 0.88549,-3.93756 0.82187,-6.65619c-0.01363,-0.58239 -1.10065,-4.31402 -2.84563,-5.72375c-1.41918,-1.1465 -7.83021,-0.31472 -7.83021,-0.31472c0,0 -0.59709,-4.53147 12.37609,-4.73138c13.11795,-0.91971 12.72946,4.61473 12.72946,4.61473c0,0 -5.69239,-0.90757 -7.76147,0.83197c-2.23488,1.87893 -2.67305,4.67937 -2.81614,5.21021c-0.3895,1.44501 -0.17965,3.18442 -0.30307,5.11153c0.02623,0.42986 0.94613,1.14663 0.38637,1.98333c-0.14154,0.21157 -0.34002,0.20388 -0.56719,0.06463c-0.2075,-0.12719 -0.50164,-0.16748 -0.73039,-0.07404c-0.47497,0.28116 -0.69877,0.68654 -1.28836,0.70956c-0.58961,0.02302 -0.6553,-0.39467 -1.14873,-0.6144c0,0 -0.43077,-0.12901 -0.65143,-0.08924c-0.28652,0.05163 -0.33652,0.29743 -0.35832,0.23488z" fill="url(#color-13)" stroke="none" stroke-width="0" stroke-linecap="butt" stroke-linejoin="miter"/><path d="M244.72034,85.24691c-0.02218,0.5155 -0.22835,0.97664 -0.84202,0.99871c0.09408,-0.30938 -0.1492,-0.68759 -0.1492,-1.0237c0,-0.53817 -0.12875,-1.04938 -0.36013,-1.51024c0.11599,-0.03712 0.2281,-0.03011 0.32767,0.03849c0.63834,0.43978 1.047,0.95479 1.02369,1.49672z" data-paper-data="{&quot;index&quot;:null}" fill="#f9ddce" stroke="none" stroke-width="0" stroke-linecap="butt" stroke-linejoin="miter"/><path d="M232.28128,77.53268c0.13692,-0.18639 0.32886,-0.28926 0.54307,-0.2642c0.21419,0.02497 0.41075,0.17318 0.55509,0.39248c0.14438,0.21926 0.23647,0.50968 0.24213,0.8187c0.00566,0.309 -0.07614,0.57908 -0.21305,0.76554c-0.13692,0.18639 -0.32886,0.28924 -0.54307,0.26419c-0.2142,-0.02504 -0.41072,-0.17319 -0.55508,-0.39249c-0.14434,-0.21923 -0.23648,-0.50963 -0.24215,-0.81869c-0.00566,-0.309 0.07618,-0.57913 0.21309,-0.76561z" data-paper-data="{&quot;origRot&quot;:0}" fill="#ffffff" stroke="none" stroke-width="1" stroke-linecap="butt" stroke-linejoin="miter"/><g data-paper-data="{&quot;origRot&quot;:0,&quot;index&quot;:null}" stroke-linecap="butt" stroke-linejoin="miter"><path d="M142.71721,103.17594c0,0 6.36103,4.36155 5.95589,6.3201c-0.40514,1.95857 -7.80014,-1.73556 -8.29796,-2.96184c-1.09544,0.06132 -7.6356,-0.70444 -7.0592,-3.49089c0.40514,-1.95855 9.40128,0.13264 9.40128,0.13264z" data-paper-data="{&quot;origPos&quot;:null}" fill="#f8ddcc" stroke="none" stroke-width="0"/><path d="M143.39749,105.21813c5.34052,2.52124 8.99848,6.00077 8.99848,6.00077c0,0 0.9153,0.78241 0.26498,2.96557c-0.86595,2.90707 -1.64535,2.88323 -1.64535,2.88323c0,0 -6.43383,0.80646 -11.03731,0.59282c-4.60348,-0.21364 -1.92133,-14.96364 3.4192,-12.4424z" data-paper-data="{&quot;origPos&quot;:null}" fill="url(#color-14)" stroke="#000000" stroke-width="0"/><path d="M140.65027,117.85446c-1.07096,0.04944 -0.37726,-0.00039 -5.74136,-1.50507c-5.36409,-1.50467 -6.11568,-1.9052 -5.7664,-3.02859c0.34929,-1.1234 1.4409,-0.92279 6.805,0.58189c1.84883,0.51862 5.28507,0.98452 5.44608,1.10218c0.53669,0.3922 0.19067,1.3249 0.07121,1.70917c0,0 -0.0266,1.10405 -0.81451,1.14043z" data-paper-data="{&quot;origPos&quot;:null,&quot;origRot&quot;:0,&quot;index&quot;:null}" fill="#fde2d1" stroke="#000000" stroke-width="0"/><path d="M126.9759,104.28762c0.18087,-1.47711 1.08642,-1.37593 8.07533,-0.58909c6.9767,0.78546 6.21563,0.37028 7.4212,0.97486c0.88697,0.44479 0.30479,1.95472 0.30479,1.95472c-0.06187,0.50525 -0.15902,1.80612 -0.97934,1.98515c-0.2461,0.05372 -1.18184,-0.28445 -6.8211,-1.5556c-6.84625,-1.54321 -8.18175,-1.29292 -8.00087,-2.77004z" data-paper-data="{&quot;origPos&quot;:null,&quot;origRot&quot;:0}" fill="#fde2d1" stroke="#000000" stroke-width="0"/><path d="M140.43999,110.24723c0.09623,-0.2568 0.33498,-0.16095 0.33498,-0.16095l0.1605,0.0296c1.00815,0.20992 2.05546,0.72801 2.96419,1.22673c0,0 0.22638,0.12424 0.10381,0.36858c-0.12257,0.24433 -0.34894,0.12009 -0.34894,0.12009c-0.87032,-0.47765 -1.86481,-0.97622 -2.83037,-1.17727l-0.24163,-0.05413c0,0 -0.23875,-0.09585 -0.14253,-0.35265z" data-paper-data="{&quot;origPos&quot;:null}" fill="#f8ddcc" stroke="none" stroke-width="0.5"/><g><path d="M125.62205,109.44587c0.40574,-1.43164 1.53956,-0.68186 8.44719,0.55702c5.68982,1.02046 6.68326,1.07252 6.88925,1.21768c0.68663,0.48385 0.27203,1.72049 0.13323,2.21019c0,0 -0.04862,1.61786 -1.03843,1.68302c-1.34538,0.08858 -0.48306,0.00178 -7.21724,-1.98614c-6.74598,-1.99141 -7.61975,-2.25013 -7.21401,-3.68177z" data-paper-data="{&quot;origPos&quot;:null,&quot;origRot&quot;:0,&quot;index&quot;:null}" fill="#fde2d1" stroke="#000000" stroke-width="0"/><path d="M137.2256,114.63582c-0.10194,0.25443 -0.33832,0.15242 -0.33832,0.15242l-0.22049,-0.06097c-0.75898,-0.52998 -1.58532,-0.74389 -2.43539,-1.08516c0,0 -0.23876,-0.09585 -0.14254,-0.35266c0.09623,-0.2568 0.33499,-0.16095 0.33499,-0.16095c0.88281,0.35442 1.73947,0.58388 2.53299,1.138l0.13433,0.01291c0,0 0.23638,0.102 0.13445,0.35642z" data-paper-data="{&quot;origPos&quot;:null}" fill="#f8ddcc" stroke="none" stroke-width="0.5"/></g><g data-paper-data="{&quot;origPos&quot;:null}"><path d="M125.51128,106.5959c0.40315,-1.43239 1.53074,-0.98599 8.44097,0.23846c2.72269,0.48244 5.98268,0.7086 6.89181,1.2033c0.68755,0.4824 0.2752,1.71984 0.13731,2.2098c0,0 -0.04566,1.61787 -1.03539,1.68508c-1.34527,0.09137 -0.48308,0.00279 -7.22124,-1.97103c-6.74996,-1.97727 -7.61659,-1.93322 -7.21345,-3.36562z" data-paper-data="{&quot;origPos&quot;:null,&quot;origRot&quot;:0,&quot;index&quot;:null}" fill="#fde2d1" stroke="#000000" stroke-width="0"/><g data-paper-data="{&quot;origRot&quot;:0,&quot;origPos&quot;:null}" fill="#f8ddcc" stroke="none" stroke-width="0.5"><path d="M133.64863,109.62589l0.24472,0.06136c0.68141,0.17091 1.36105,0.32955 2.04747,0.48131c0,0 0.25068,0.05543 0.19213,0.32387c-0.05855,0.26844 -0.30923,0.21303 -0.30923,0.21303c-0.69088,-0.15276 -1.37495,-0.31244 -2.06062,-0.48443l-0.23851,-0.05985c0,0 -0.24984,-0.05914 -0.18782,-0.32679c0.06202,-0.26764 0.31186,-0.20851 0.31186,-0.20851z" data-paper-data="{&quot;origPos&quot;:null}"/><path d="M138.0438,111.48291c-0.10904,0.25122 -0.34223,0.14157 -0.34223,0.14157l-0.14625,-0.07663c-0.60219,-0.37748 -1.27136,-0.49843 -1.86844,-0.87272c0,0 -0.21929,-0.13747 -0.08448,-0.37462c0.13481,-0.23714 0.35412,-0.09967 0.35412,-0.09967c0.59279,0.3716 1.26651,0.49538 1.86844,0.87272l0.09471,0.04847c0,0 0.23319,0.10965 0.12415,0.36087z" data-paper-data="{&quot;origPos&quot;:null}"/></g><g data-paper-data="{&quot;origPos&quot;:null}" fill="#f8ddcc" stroke="none" stroke-width="0.5"><path d="M134.36758,107.05416c0.05566,-0.26907 0.30699,-0.21674 0.30699,-0.21674l0.05914,0.01231c0.61109,0.12723 1.22218,0.25447 1.83326,0.38171c0.11827,0.02462 0.23656,0.04926 0.35483,0.07388c0.03177,0.00662 0.06085,0.01925 0.08645,0.03658c0.06668,0.04123 0.14236,0.12461 0.10922,0.28482c-0.03314,0.1602 -0.13565,0.20647 -0.21317,0.21768c-0.03035,0.00569 -0.06205,0.00567 -0.09381,-0.00094l-0.35483,-0.07388c-0.62581,-0.1303 -1.27995,-0.26651 -1.89239,-0.39403c0,0 -0.25132,-0.05232 -0.19567,-0.3214z" data-paper-data="{&quot;origPos&quot;:null}"/><path d="M138.77247,107.44096c0.00695,0.27373 -0.15105,0.26114 -0.15105,0.26114l-0.13792,0.07033c-0.40057,0.15701 -0.99569,0.16074 -1.47333,0.09983l-0.00253,0.0122l-0.29568,-0.06157c-0.03177,-0.00662 -0.06085,-0.01925 -0.08645,-0.03658c-0.06668,-0.04123 -0.14237,-0.12461 -0.10923,-0.28482c0.03314,-0.1602 0.13566,-0.20647 0.21318,-0.21768c0.03036,-0.00569 0.06206,-0.00566 0.09382,0.00095c0.24094,0.05017 1.3371,0.17425 1.44767,-0.00565l0.13792,-0.07033c0,0 0.35664,-0.04155 0.36359,0.23217z" data-paper-data="{&quot;origPos&quot;:null}"/></g></g></g></g></g></svg>